<svg width="12" height="9" viewBox="0 0 12 9" fill="none" xmlns="http://www.w3.org/2000/svg">
<path d="M11.3205 -0.0065461C11.1473 -0.00138534 10.9829 0.0710008 10.8622 0.195277L4.00022 7.05726L1.80491 4.86194C1.74348 4.79796 1.6699 4.74688 1.58848 4.71169C1.50706 4.6765 1.41944 4.65791 1.33074 4.65701C1.24205 4.6561 1.15407 4.67291 1.07195 4.70643C0.989831 4.73996 0.915228 4.78953 0.852508 4.85225C0.789789 4.91497 0.740215 4.98958 0.706689 5.07169C0.673163 5.15381 0.656359 5.24179 0.657261 5.33049C0.658163 5.41918 0.676754 5.5068 0.711944 5.58822C0.747134 5.66964 0.798216 5.74322 0.862198 5.80465L3.52886 8.47132C3.65389 8.5963 3.82344 8.6665 4.00022 8.6665C4.177 8.6665 4.34654 8.5963 4.47157 8.47132L11.8049 1.13799C11.9012 1.04434 11.967 0.923783 11.9937 0.792103C12.0203 0.660423 12.0066 0.523767 11.9542 0.400043C11.9018 0.27632 11.8133 0.1713 11.7002 0.0987472C11.5872 0.0261945 11.4548 -0.0105063 11.3205 -0.0065461Z" fill="#004B52"/>
</svg>
