<svg width="12" height="12" viewBox="0 0 12 12" fill="none" xmlns="http://www.w3.org/2000/svg">
<path d="M1.3268 0.660156C1.19418 0.660191 1.06458 0.699777 0.95457 0.773853C0.844564 0.847928 0.759148 0.953128 0.709244 1.076C0.659339 1.19888 0.647213 1.33384 0.674415 1.46365C0.701618 1.59345 0.766914 1.71219 0.861954 1.80469L5.05727 6L0.861954 10.1953C0.797972 10.2567 0.74689 10.3303 0.7117 10.4117C0.67651 10.4932 0.657919 10.5808 0.657017 10.6695C0.656115 10.7582 0.672919 10.8462 0.706445 10.9283C0.739971 11.0104 0.789545 11.085 0.852264 11.1477C0.914983 11.2104 0.989587 11.26 1.0717 11.2935C1.15382 11.3271 1.24181 11.3439 1.3305 11.343C1.41919 11.3421 1.50681 11.3235 1.58823 11.2883C1.66965 11.2531 1.74323 11.202 1.80466 11.138L5.99997 6.94271L10.1953 11.138C10.2567 11.202 10.3303 11.2531 10.4117 11.2883C10.4931 11.3235 10.5808 11.3421 10.6695 11.343C10.7581 11.3439 10.8461 11.3271 10.9282 11.2935C11.0104 11.26 11.085 11.2104 11.1477 11.1477C11.2104 11.085 11.26 11.0104 11.2935 10.9283C11.327 10.8462 11.3438 10.7582 11.3429 10.6695C11.342 10.5808 11.3234 10.4932 11.2883 10.4117C11.2531 10.3303 11.202 10.2567 11.138 10.1953L6.94268 6L11.138 1.80469C11.2343 1.71105 11.3001 1.59049 11.3268 1.45881C11.3534 1.32713 11.3396 1.19047 11.2873 1.06675C11.2349 0.943022 11.1464 0.838002 11.0333 0.765449C10.9203 0.692897 10.7879 0.656196 10.6536 0.660156C10.4804 0.665317 10.316 0.737703 10.1953 0.861979L5.99997 5.05729L1.80466 0.861979C1.74254 0.798116 1.66824 0.747353 1.58616 0.712688C1.50409 0.678024 1.41589 0.660161 1.3268 0.660156Z" fill="white"/>
</svg>
