<svg width="41" height="40" viewBox="0 0 41 40" fill="none" xmlns="http://www.w3.org/2000/svg">
<path d="M16.3334 31.6667C16.3334 31.6667 14.7184 28.3334 10.5 28.3334C6.28169 28.3334 4.66669 31.6667 4.66669 31.6667V33.3334H16.3334V31.6667ZM36.3334 31.6667C36.3334 31.6667 34.7184 28.3334 30.5 28.3334C26.2817 28.3334 24.6667 31.6667 24.6667 31.6667V33.3334H36.3334V31.6667Z" fill="#8BC34A"/>
<path d="M13.8334 9.99996C13.8334 11.8408 12.3409 13.3333 10.5 13.3333C8.65919 13.3333 7.16669 11.8408 7.16669 9.99996C7.16669 8.15913 8.65919 6.66663 10.5 6.66663C12.3409 6.66663 13.8334 8.15913 13.8334 9.99996ZM33.8334 9.99996C33.8334 11.8408 32.3409 13.3333 30.5 13.3333C28.6592 13.3333 27.1667 11.8408 27.1667 9.99996C27.1667 8.15913 28.6592 6.66663 30.5 6.66663C32.3409 6.66663 33.8334 8.15913 33.8334 9.99996Z" fill="#FFA726"/>
<path d="M16.3334 17.5C16.3334 17.5 14.7184 14.1666 10.5 14.1666C6.28169 14.1666 4.66669 17.5 4.66669 17.5V19.1666H16.3334V17.5ZM36.3334 17.5C36.3334 17.5 34.7184 14.1666 30.5 14.1666C26.2817 14.1666 24.6667 17.5 24.6667 17.5V19.1666H36.3334V17.5Z" fill="#33691E"/>
<path d="M13.8334 24.1666C13.8334 26.0075 12.3409 27.5 10.5 27.5C8.65919 27.5 7.16669 26.0075 7.16669 24.1666C7.16669 22.3258 8.65919 20.8333 10.5 20.8333C12.3409 20.8333 13.8334 22.3258 13.8334 24.1666ZM33.8334 24.1666C33.8334 26.0075 32.3409 27.5 30.5 27.5C28.6592 27.5 27.1667 26.0075 27.1667 24.1666C27.1667 22.3258 28.6592 20.8333 30.5 20.8333C32.3409 20.8333 33.8334 22.3258 33.8334 24.1666ZM23.8334 17.5C23.8334 19.3408 22.3409 20.8333 20.5 20.8333C18.6592 20.8333 17.1667 19.3408 17.1667 17.5C17.1667 15.6591 18.6592 14.1666 20.5 14.1666C22.3409 14.1666 23.8334 15.6591 23.8334 17.5Z" fill="#FFB74D"/>
<path d="M26.3334 25C26.3334 25 24.7184 21.6666 20.5 21.6666C16.2817 21.6666 14.6667 25 14.6667 25V26.6666H26.3334V25Z" fill="#689F38"/>
</svg>
