<svg width="105" height="32" viewBox="0 0 105 32" fill="none" xmlns="http://www.w3.org/2000/svg">
<rect x="0.785767" y="0.5" width="31" height="31" rx="7.5" stroke="#004B52" stroke-opacity="0.16"/>
<path d="M13.3691 24.1666C13.3691 24.1666 12.2386 21.8333 9.28573 21.8333C6.33289 21.8333 5.20239 24.1666 5.20239 24.1666V25.3333H13.3691V24.1666ZM27.3691 24.1666C27.3691 24.1666 26.2386 21.8333 23.2857 21.8333C20.3329 21.8333 19.2024 24.1666 19.2024 24.1666V25.3333H27.3691V24.1666Z" fill="#8BC34A"/>
<path d="M11.6191 9.00008C11.6191 10.2887 10.5743 11.3334 9.28573 11.3334C7.99714 11.3334 6.95239 10.2887 6.95239 9.00008C6.95239 7.7115 7.99714 6.66675 9.28573 6.66675C10.5743 6.66675 11.6191 7.7115 11.6191 9.00008ZM25.6191 9.00008C25.6191 10.2887 24.5743 11.3334 23.2857 11.3334C21.9971 11.3334 20.9524 10.2887 20.9524 9.00008C20.9524 7.7115 21.9971 6.66675 23.2857 6.66675C24.5743 6.66675 25.6191 7.7115 25.6191 9.00008Z" fill="#FFA726"/>
<path d="M13.3691 14.2501C13.3691 14.2501 12.2386 11.9167 9.28573 11.9167C6.33289 11.9167 5.20239 14.2501 5.20239 14.2501V15.4167H13.3691V14.2501ZM27.3691 14.2501C27.3691 14.2501 26.2386 11.9167 23.2857 11.9167C20.3329 11.9167 19.2024 14.2501 19.2024 14.2501V15.4167H27.3691V14.2501Z" fill="#33691E"/>
<path d="M11.6191 18.9167C11.6191 20.2053 10.5743 21.2501 9.28573 21.2501C7.99714 21.2501 6.95239 20.2053 6.95239 18.9167C6.95239 17.6282 7.99714 16.5834 9.28573 16.5834C10.5743 16.5834 11.6191 17.6282 11.6191 18.9167ZM25.6191 18.9167C25.6191 20.2053 24.5743 21.2501 23.2857 21.2501C21.9971 21.2501 20.9524 20.2053 20.9524 18.9167C20.9524 17.6282 21.9971 16.5834 23.2857 16.5834C24.5743 16.5834 25.6191 17.6282 25.6191 18.9167ZM18.6191 14.2501C18.6191 15.5387 17.5743 16.5834 16.2857 16.5834C14.9971 16.5834 13.9524 15.5387 13.9524 14.2501C13.9524 12.9615 14.9971 11.9167 16.2857 11.9167C17.5743 11.9167 18.6191 12.9615 18.6191 14.2501Z" fill="#FFB74D"/>
<path d="M20.3691 19.5001C20.3691 19.5001 19.2386 17.1667 16.2857 17.1667C13.3329 17.1667 12.2024 19.5001 12.2024 19.5001V20.6667H20.3691V19.5001Z" fill="#689F38"/>
<rect x="36.7858" y="0.5" width="31" height="31" rx="7.5" stroke="#004B52" stroke-opacity="0.16"/>
<path d="M57.5358 10.1667C57.5358 13.0834 55.2024 15.4167 52.2858 15.4167C49.3691 15.4167 47.0358 13.0834 47.0358 10.1667C47.0358 7.25008 49.3691 4.91675 52.2858 4.91675C55.2024 4.91675 57.5358 7.25008 57.5358 10.1667Z" fill="#FFB74D"/>
<path d="M62.7858 23.0584C62.7858 23.0584 59.8691 17.1667 52.2858 17.1667C44.7024 17.1667 41.7858 23.0584 41.7858 23.0584V26.5001H62.7858V23.0584Z" fill="#607D8B"/>
<rect x="72.7858" y="0.5" width="31" height="31" rx="7.5" stroke="#004B52" stroke-opacity="0.16"/>
<path d="M85.9524 9C85.9524 10.9332 84.385 12.5 82.4524 12.5C80.5198 12.5 78.9524 10.9332 78.9524 9C78.9524 7.06683 80.5192 5.5 82.4524 5.5C84.3856 5.5 85.9524 7.06683 85.9524 9ZM97.6191 9C97.6191 7.06683 96.0516 5.5 94.1191 5.5C92.1865 5.5 90.6191 7.06683 90.6191 9C90.6191 10.9332 92.1865 12.5 94.1191 12.5C96.0516 12.5 97.6191 10.9332 97.6191 9Z" fill="#FFA726"/>
<path d="M88.2858 18.3334H76.6191V16.5834C76.6191 16.5834 78.2332 13.6667 82.4525 13.6667C86.6711 13.6667 88.2858 16.5834 88.2858 16.5834V18.3334ZM99.9525 16.5834C99.9525 16.5834 98.3378 13.6667 94.1191 13.6667C89.8999 13.6667 88.2858 16.5834 88.2858 16.5834V18.3334H99.9525V16.5834Z" fill="#607D8B"/>
<path d="M95.8691 26.5V24.1667H91.2025V21.8333H95.8691V19.5L99.9525 23L95.8691 26.5ZM80.7025 19.5L76.6191 23L80.7025 26.5V24.1667H85.3691V21.8333H80.7025V19.5ZM88.8691 24.1667H90.0358V21.8333H88.8691V24.1667ZM86.5358 24.1667H87.7025V21.8333H86.5358V24.1667Z" fill="#2196F3"/>
</svg>
