<svg width="40" height="40" viewBox="0 0 40 40" fill="none" xmlns="http://www.w3.org/2000/svg">
<path d="M10.1168 40C8.3898 40 6.98904 39.4468 5.91447 38.3405C4.83991 37.196 4.0148 35.6891 3.43914 33.8197C2.86349 31.9123 2.47971 29.8331 2.28783 27.5823C2.09594 25.3314 2 23.0997 2 20.887C2 18.2928 2.34539 15.7558 3.03618 13.2761C3.76535 10.7964 4.8591 8.56462 6.31743 6.58083C7.81415 4.55889 9.69463 2.9566 11.9589 1.77396C14.2231 0.591321 16.9095 0 20.0181 0C23.165 0 26.0049 0.648546 28.5378 1.94564C31.1091 3.24273 33.1623 5.09299 34.6974 7.49642C36.2325 9.89986 37 12.7611 37 16.0801C37 19.0558 36.5395 21.6118 35.6184 23.7482C34.6974 25.8846 33.4501 27.6395 31.8766 29.0129C30.3416 30.3481 28.6146 31.34 26.6957 31.9886C24.8152 32.6371 22.8964 32.9423 20.9391 32.9041C18.9819 32.8279 17.159 32.4464 15.4704 31.7597C15.6623 32.6753 15.7582 33.6099 15.7582 34.5637C15.7966 35.5174 15.6431 36.4139 15.2977 37.2532C14.9907 38.0544 14.415 38.722 13.5707 39.2561C12.7648 39.752 11.6135 40 10.1168 40ZM20.5938 23.9771C21.9753 23.9771 23.165 23.4812 24.1628 22.4893C25.199 21.4592 25.7171 20.2766 25.7171 18.9413C25.7171 17.568 25.199 16.3853 24.1628 15.3934C23.165 14.3634 21.9753 13.8484 20.5938 13.8484C19.2122 13.8484 18.0033 14.3634 16.9671 15.3934C15.9693 16.3853 15.4704 17.568 15.4704 18.9413C15.4704 20.2766 15.9693 21.4592 16.9671 22.4893C18.0033 23.4812 19.2122 23.9771 20.5938 23.9771Z" fill="#6FD20C"/>
</svg>
