<svg width="20" height="20" viewBox="0 0 20 20" fill="none" xmlns="http://www.w3.org/2000/svg">
<path d="M7.49999 1.66663C4.2882 1.66663 1.66666 4.28817 1.66666 7.49996C1.66666 10.7118 4.2882 13.3333 7.49999 13.3333C8.95665 13.3333 10.2875 12.79 11.3118 11.901L11.6667 12.2558V13.3333L16.6667 18.3333L18.3333 16.6666L13.3333 11.6666H12.2558L11.901 11.3118C12.79 10.2875 13.3333 8.95662 13.3333 7.49996C13.3333 4.28817 10.7118 1.66663 7.49999 1.66663ZM7.49999 3.33329C9.81105 3.33329 11.6667 5.1889 11.6667 7.49996C11.6667 9.81102 9.81105 11.6666 7.49999 11.6666C5.18893 11.6666 3.33332 9.81102 3.33332 7.49996C3.33332 5.1889 5.18893 3.33329 7.49999 3.33329Z" fill="#005E66"/>
</svg>
