<svg width="33" height="32" viewBox="0 0 33 32" fill="none" xmlns="http://www.w3.org/2000/svg">
<rect x="0.642944" y="0.5" width="31" height="31" rx="7.5" stroke="#004B52" stroke-opacity="0.16"/>
<path d="M21.4763 15.3333H16.8096V10.6667C16.8096 10.2987 16.5109 10 16.1429 10C15.7749 10 15.4763 10.2987 15.4763 10.6667V15.3333H10.8096C10.4416 15.3333 10.1429 15.632 10.1429 16C10.1429 16.368 10.4416 16.6667 10.8096 16.6667H15.4763V21.3333C15.4763 21.7013 15.7749 22 16.1429 22C16.5109 22 16.8096 21.7013 16.8096 21.3333V16.6667H21.4763C21.8443 16.6667 22.1429 16.368 22.1429 16C22.1429 15.632 21.8443 15.3333 21.4763 15.3333Z" fill="black"/>
</svg>
