<svg width="16" height="16" viewBox="0 0 16 16" fill="none" xmlns="http://www.w3.org/2000/svg">
<path d="M1.33333 0.5C0.873333 0.5 0.5 0.873333 0.5 1.33333V4.66667C0.5 5.12667 0.873333 5.5 1.33333 5.5H4.66667C5.12667 5.5 5.5 5.12667 5.5 4.66667V1.33333C5.5 0.873333 5.12667 0.5 4.66667 0.5H1.33333ZM7.16667 0.5V2.16667H8.83333V0.5H7.16667ZM11.3333 0.5C10.8733 0.5 10.5 0.873333 10.5 1.33333V4.66667C10.5 5.12667 10.8733 5.5 11.3333 5.5H14.6667C15.1267 5.5 15.5 5.12667 15.5 4.66667V1.33333C15.5 0.873333 15.1267 0.5 14.6667 0.5H11.3333ZM2.16667 2.16667H3.83333V3.83333H2.16667V2.16667ZM12.1667 2.16667H13.8333V3.83333H12.1667V2.16667ZM7.16667 3.83333V5.5H8.83333V3.83333H7.16667ZM0.5 7.16667V8.83333H2.16667V7.16667H0.5ZM3.83333 7.16667V8.83333H5.5V7.16667H3.83333ZM7.16667 7.16667V8.83333H8.83333V7.16667H7.16667ZM8.83333 8.83333V10.5H10.5V8.83333H8.83333ZM10.5 8.83333H12.1667V7.16667H10.5V8.83333ZM12.1667 8.83333V10.5H13.8333V8.83333H12.1667ZM13.8333 8.83333H15.5V7.16667H13.8333V8.83333ZM13.8333 10.5V12.1667H15.5V10.5H13.8333ZM13.8333 12.1667H12.1667V13.8333H13.8333V12.1667ZM13.8333 13.8333V15.5H15.5V13.8333H13.8333ZM12.1667 13.8333H10.5V15.5H12.1667V13.8333ZM10.5 13.8333V12.1667H8.83333V13.8333H10.5ZM8.83333 13.8333H7.16667V15.5H8.83333V13.8333ZM8.83333 12.1667V10.5H7.16667V12.1667H8.83333ZM10.5 12.1667H12.1667V10.5H10.5V12.1667ZM1.33333 10.5C0.873333 10.5 0.5 10.8733 0.5 11.3333V14.6667C0.5 15.1267 0.873333 15.5 1.33333 15.5H4.66667C5.12667 15.5 5.5 15.1267 5.5 14.6667V11.3333C5.5 10.8733 5.12667 10.5 4.66667 10.5H1.33333ZM2.16667 12.1667H3.83333V13.8333H2.16667V12.1667Z" fill="#004B52"/>
</svg>
